<?xml version="1.0" standalone="no"?>
<!DOCTYPE svg PUBLIC "-//W3C//DTD SVG 20010904//EN"
 "http://www.w3.org/TR/2001/REC-SVG-20010904/DTD/svg10.dtd">
<svg version="1.0" xmlns="http://www.w3.org/2000/svg"
 width="512.000000pt" height="512.000000pt" viewBox="0 0 512.000000 512.000000"
 preserveAspectRatio="xMidYMid meet">
<metadata>
Created by potrace 1.14, written by Peter Selinger 2001-2017
</metadata>
<g transform="translate(0.000000,512.000000) scale(0.100000,-0.100000)"
fill="#000000" stroke="none">
<path d="M320 4067 c-49 -16 -133 -102 -148 -153 -17 -60 -17 -2648 0 -2708
16 -55 99 -138 154 -154 32 -9 542 -12 2236 -12 2475 0 2252 -8 2331 80 24 26
49 66 55 88 17 57 17 2647 0 2704 -6 22 -31 62 -55 88 -79 88 145 80 -2337 79
-1574 -1 -2211 -4 -2236 -12z m4452 -175 c20 -20 23 -35 26 -116 l4 -93 -79
-98 -78 -98 -3 114 c-2 100 -5 116 -24 136 l-21 23 -2036 0 -2035 0 -23 -22
-23 -21 0 -916 0 -915 22 -23 21 -23 981 0 981 0 -55 -26 c-30 -14 -114 -50
-187 -80 l-132 -54 -554 0 -554 0 -20 -22 c-11 -13 -41 -87 -67 -164 l-47
-141 -122 -16 c-106 -14 -233 -28 -384 -41 l-43 -4 0 1277 c0 1003 3 1281 13
1301 7 13 24 30 37 37 20 10 468 12 2202 10 l2177 -2 23 -23z m-292 -440 c0
-102 -4 -152 -12 -160 -9 -9 -449 -12 -1920 -12 l-1908 0 0 160 0 160 1920 0
1920 0 0 -148z m0 -892 l0 -560 -1920 0 -1920 0 0 560 0 560 1920 0 1920 0 0
-560z"/>
<path d="M1340 2944 c-227 -82 -293 -362 -125 -529 65 -66 125 -90 225 -90
100 0 160 24 225 90 66 65 90 125 90 225 0 100 -24 160 -90 225 -82 82 -222
116 -325 79z m101 -224 l79 0 0 33 1 32 34 -37 c55 -59 59 -148 9 -208 -31
-37 -44 -38 -44 -5 0 25 -1 25 -80 25 l-80 0 0 -32 -1 -33 -34 37 c-58 63 -59
150 -2 215 l32 37 3 -32 3 -32 80 0z"/>
<path d="M1945 2935 l-25 -24 0 -271 0 -271 25 -24 24 -25 591 0 591 0 24 25
25 24 0 271 0 271 -25 24 -24 25 -591 0 -591 0 -24 -25z m780 -295 l0 -160
-165 0 -165 0 0 160 0 160 165 0 165 0 0 -160z"/>
<path d="M3580 2944 c-229 -83 -293 -362 -122 -532 65 -65 120 -87 222 -87
103 0 157 21 225 90 68 68 90 122 90 225 0 100 -23 159 -89 225 -83 82 -223
116 -326 79z m101 -224 l79 0 0 33 1 32 34 -37 c55 -59 59 -148 9 -208 -31
-37 -44 -38 -44 -5 0 25 -1 25 -80 25 l-80 0 0 -32 -1 -33 -34 37 c-58 63 -59
150 -2 215 l32 37 3 -32 3 -32 80 0z"/>
</g>
</svg>
